<?xml version="1.0" encoding="UTF-8" standalone="no"?>
<!-- Created with Inkscape (http://www.inkscape.org/) -->

<svg
   version="1.1"
   id="svg1"
   viewBox="0 0 300.15624 193.52343"
   xmlns="http://www.w3.org/2000/svg"
   xmlns:svg="http://www.w3.org/2000/svg">
  <defs
     id="defs1" />
  <g
     id="g1"
     transform="translate(-181.38671,-947.498)">
    <path
       id="path1"
       style="mix-blend-mode:normal;fill:#ffffff;fill-opacity:1;stroke-width:1.5;stroke-dasharray:4.5, 4.5"
       d="m 465.77344,948.41148 -29.77149,0.45508 -14.49218,26.01172 15.28125,25.55472 29.77148,-0.45511 14.49023,-26.01172 z m -119.96289,2.50196 -29.77344,0.45507 -14.49023,26.01172 15.27929,25.55467 29.77149,-0.4551 14.49218,-26.01168 z m -120.16016,0.0879 -29.77148,0.45508 -14.49219,26.01171 15.28125,25.55467 29.77148,-0.4551 14.49219,-26.01168 z m 180.14649,32.85937 -29.77149,0.45508 -14.49023,26.01171 15.27929,25.5547 29.77149,-0.4551 14.49218,-26.0117 z m -119.52149,1.55469 -29.77148,0.45508 -14.49219,26.01172 15.28125,25.5547 29.77148,-0.4551 14.49024,-26.0117 z m 179.98828,32.9922 -29.77148,0.4551 -14.49219,26.0117 15.2793,25.5547 29.77343,-0.4551 14.49024,-26.0117 z m -119.50195,0.707 -29.77149,0.4551 -14.49218,26.0098 15.27929,25.5566 29.77344,-0.457 14.49024,-26.0098 z m -119.9082,1.0645 -29.77149,0.455 -14.49023,26.0098 15.27929,25.5566 29.77149,-0.455 14.49219,-26.0118 z m 179.90429,33.2246 -29.77148,0.455 -14.49219,26.0098 15.2793,25.5567 29.77148,-0.4551 14.49219,-26.0117 z m -120.02539,0.5097 -29.77148,0.4551 -14.49219,26.0117 15.28125,25.5547 29.77148,-0.4551 14.49219,-26.0117 z m 60.26563,34.7344 -29.77149,0.4551 -14.49218,26.0117 15.28124,25.5547 29.77149,-0.4551 14.49023,-26.0097 z m -120.38672,1.2656 -29.77149,0.4551 -14.49218,26.0117 15.28125,25.5547 29.77148,-0.4551 14.49023,-26.0117 z"
       transform="translate(0,-0.9134366)" />
  </g>
</svg>
